<?xml version="1.0" encoding="utf-8"?>
<!-- Generator: Adobe Illustrator 25.2.3, SVG Export Plug-In . SVG Version: 6.00 Build 0)  -->
<svg version="1.1" id="Layer_1" xmlns="http://www.w3.org/2000/svg" xmlns:xlink="http://www.w3.org/1999/xlink" x="0px" y="0px"
	 viewBox="0 0 26 26" style="enable-background:new 0 0 26 26;" xml:space="preserve">
<style type="text/css">
	.st0{opacity:0.99;}
	.st1{fill:#AAAAAA;}
</style>
<g>
	<g>
		<g class="st0">
			<path class="st1" d="M22.5,9.2L22.5,9.2c-0.5,0-0.8-0.4-0.8-0.8v-2c0-0.3-0.3-0.6-0.6-0.6h-3.3C17.3,5.8,17,5.5,17,5v0
				c0-0.5,0.4-0.8,0.8-0.8h4.4c0.6,0,1.1,0.5,1.1,1.1v3.1C23.3,8.9,23,9.2,22.5,9.2z"/>
		</g>
		<g class="st0">
			<path class="st1" d="M3.5,9.2L3.5,9.2C3,9.2,2.7,8.9,2.7,8.4V5.3c0-0.6,0.5-1.1,1.1-1.1h4.4C8.7,4.2,9,4.5,9,5v0
				c0,0.5-0.4,0.8-0.8,0.8H4.9c-0.3,0-0.6,0.3-0.6,0.6v2C4.3,8.9,4,9.2,3.5,9.2z"/>
		</g>
		<g class="st0">
			<path class="st1" d="M8.2,21.8H3.8c-0.6,0-1.1-0.5-1.1-1.1v-3.1c0-0.5,0.4-0.8,0.8-0.8h0c0.5,0,0.8,0.4,0.8,0.8v2
				c0,0.3,0.3,0.6,0.6,0.6h3.3C8.7,20.2,9,20.5,9,21v0C9,21.5,8.7,21.8,8.2,21.8z"/>
		</g>
		<g class="st0">
			<path class="st1" d="M22.2,21.8h-4.4c-0.5,0-0.8-0.4-0.8-0.8v0c0-0.5,0.4-0.8,0.8-0.8h3.3c0.3,0,0.6-0.3,0.6-0.6v-2
				c0-0.5,0.4-0.8,0.8-0.8l0,0c0.5,0,0.8,0.4,0.8,0.8v3.1C23.3,21.3,22.8,21.8,22.2,21.8z"/>
		</g>
	</g>
	<path class="st1" d="M15.4,13.5c1.1-0.9,1.8-2.3,1.6-3.8c-0.2-1.9-1.8-3.4-3.7-3.6c-2.5-0.3-4.6,1.7-4.6,4.1c0,1.3,0.6,2.5,1.6,3.3
		c0.2,0.1,0.1,0.4-0.1,0.4c-2.4,0.7-4.2,2.4-4.6,4.4c-0.1,0.5,0.3,1,0.8,1h0c0.4,0,0.7-0.3,0.8-0.7c0.4-2,2.8-3.5,5.6-3.5
		s5.2,1.5,5.6,3.5c0.1,0.4,0.4,0.7,0.8,0.7h0c0.5,0,0.9-0.5,0.8-1c-0.5-2-2.2-3.7-4.6-4.4C15.3,13.8,15.2,13.6,15.4,13.5z M12.4,7.7
		c1.8-0.3,3.3,1.2,2.9,2.9c-0.2,1-1,1.8-2,2c-1.8,0.3-3.3-1.2-2.9-2.9C10.6,8.7,11.4,7.9,12.4,7.7z"/>
</g>
</svg>
