<?xml version="1.0" encoding="utf-8"?>
<!-- Generator: Adobe Illustrator 25.2.3, SVG Export Plug-In . SVG Version: 6.00 Build 0)  -->
<svg version="1.1" id="Layer_1" xmlns="http://www.w3.org/2000/svg" xmlns:xlink="http://www.w3.org/1999/xlink" x="0px" y="0px"
	 viewBox="0 0 36 36" style="enable-background:new 0 0 36 36;" xml:space="preserve">
<style type="text/css">
	.st0{fill:url(#SVGID_1_);}
	.st1{fill:#FFFFFF;}
</style>
<g>
	<linearGradient id="SVGID_1_" gradientUnits="userSpaceOnUse" x1="18" y1="0" x2="18" y2="36">
		<stop  offset="0" style="stop-color:#62EFCD"/>
		<stop  offset="1" style="stop-color:#0BD0AF"/>
	</linearGradient>
	<circle class="st0" cx="18" cy="18" r="18"/>
	<circle class="st1" cx="18" cy="28" r="2"/>
	<g>
		<path class="st1" d="M21.9,12.9h-7.9c-0.5,0-0.9,0.4-0.9,0.9v4.3c0,0.5,0.4,0.9,0.9,0.9h7.9c0.5,0,0.9-0.4,0.9-0.9v-4.3
			C22.9,13.3,22.5,12.9,21.9,12.9z"/>
		<path class="st1" d="M24.8,5.4H11.2c-1,0-1.8,0.8-1.8,1.8v14c0,1,0.8,1.8,1.8,1.8h13.7c1,0,1.8-0.8,1.8-1.8v-14
			C26.7,6.2,25.8,5.4,24.8,5.4z M12.6,7.5h5.3c0.6,0,1.2,0.5,1.2,1.2c0,0.6-0.5,1.2-1.2,1.2h-5.3c-0.6,0-1.2-0.5-1.2-1.2
			C11.4,8,11.9,7.5,12.6,7.5z M24.8,19.6c0,0.7-0.6,1.3-1.3,1.3H12.6c-0.7,0-1.3-0.6-1.3-1.3v-7.3c0-0.7,0.6-1.3,1.3-1.3h10.8
			c0.7,0,1.3,0.6,1.3,1.3V19.6z"/>
	</g>
</g>
</svg>
