<?xml version="1.0" encoding="utf-8"?>
<!-- Generator: Adobe Illustrator 25.2.3, SVG Export Plug-In . SVG Version: 6.00 Build 0)  -->
<svg version="1.1" id="Layer_1" xmlns="http://www.w3.org/2000/svg" xmlns:xlink="http://www.w3.org/1999/xlink" x="0px" y="0px"
	 viewBox="0 0 26 26" style="enable-background:new 0 0 26 26;" xml:space="preserve">
<style type="text/css">
	.st0{fill:#333333;}
</style>
<g>
	<path class="st0" d="M21.7,1H6.3C4.5,1,3,2.5,3,4.3v2.3H2c-0.6,0-1,0.4-1,1s0.4,1,1,1h1V12H2c-0.6,0-1,0.4-1,1s0.4,1,1,1h1v3.3H2
		c-0.6,0-1,0.4-1,1c0,0.6,0.4,1,1,1h1v2.3C3,23.5,4.5,25,6.3,25h15.3c1.8,0,3.3-1.5,3.3-3.3V4.3C25,2.5,23.5,1,21.7,1L21.7,1z
		 M5,6.7V4.3C5,3.6,5.6,3,6.3,3h15.3C22.4,3,23,3.6,23,4.3v17.3c0,0.7-0.6,1.3-1.3,1.3H6.3C5.6,23,5,22.4,5,21.7v-2.3h0.3
		c0.6,0,1-0.4,1-1c0-0.6-0.4-1-1-1H5V14h0.3c0.6,0,1-0.4,1-1s-0.4-1-1-1H5V8.7h0.3c0.6,0,1-0.4,1-1s-0.4-1-1-1H5L5,6.7z"/>
	<path class="st0" d="M19,7.7H9c-0.6,0-1,0.4-1,1c0,0.6,0.4,1,1,1h10c0.6,0,1-0.4,1-1C20,8.1,19.6,7.7,19,7.7L19,7.7z"/>
</g>
</svg>
