<?xml version="1.0" encoding="utf-8"?>
<!-- Generator: Adobe Illustrator 25.2.3, SVG Export Plug-In . SVG Version: 6.00 Build 0)  -->
<svg version="1.1" id="Layer_1" xmlns="http://www.w3.org/2000/svg" xmlns:xlink="http://www.w3.org/1999/xlink" x="0px" y="0px"
	 viewBox="0 0 26 26" style="enable-background:new 0 0 26 26;" xml:space="preserve">
<style type="text/css">
	.st0{fill:#333333;}
</style>
<path class="st0" d="M10.9,1.4C8.4,1.4,6,2.3,4.1,4.1c-3.7,3.7-3.7,9.7,0,13.4c1.9,1.9,4.3,2.8,6.7,2.8c2.1,0,4.2-0.7,6-2.1l6.1,6.1
	c0.2,0.2,0.5,0.3,0.7,0.3s0.5-0.1,0.7-0.3c0.4-0.4,0.4-1,0-1.4l-6.1-6.1c3-3.7,2.8-9.2-0.7-12.7C15.7,2.3,13.3,1.4,10.9,1.4
	L10.9,1.4z M10.9,18.4c-2,0-3.9-0.8-5.3-2.2c-2.9-2.9-2.9-7.7,0-10.6C7,4.1,8.9,3.4,10.9,3.4c2,0,3.9,0.8,5.3,2.2
	c2.9,2.9,2.9,7.7,0,10.6C14.7,17.6,12.9,18.4,10.9,18.4L10.9,18.4z"/>
</svg>
