<svg width="72" height="72" viewBox="0 0 72 72" fill="none" xmlns="http://www.w3.org/2000/svg">
<path d="M36 21V42M36 42L45 33M36 42L27 33" stroke="#333333" stroke-width="4.5" stroke-linecap="round" stroke-linejoin="round"/>
<path d="M48 51H24M66 36C66 50.142 66 57.213 61.605 61.605C57.216 66 50.142 66 36 66C21.858 66 14.787 66 10.392 61.605C6 57.216 6 50.142 6 36C6 21.858 6 14.787 10.392 10.392C14.79 6 21.858 6 36 6C50.142 6 57.213 6 61.605 10.392C64.527 13.314 65.505 17.421 65.835 24" stroke="#333333" stroke-width="4.5" stroke-linecap="round"/>
</svg>
