<?xml version="1.0" encoding="utf-8"?>
<!-- Generator: Adobe Illustrator 25.2.3, SVG Export Plug-In . SVG Version: 6.00 Build 0)  -->
<svg version="1.1" id="Layer_1" xmlns="http://www.w3.org/2000/svg" xmlns:xlink="http://www.w3.org/1999/xlink" x="0px" y="0px"
	 viewBox="0 0 26 26" style="enable-background:new 0 0 26 26;" xml:space="preserve">
<style type="text/css">
	.st0{fill:#AAAAAA;}
</style>
<path class="st0" d="M21.7,7.7h-0.4h-4.8V6.1c0-1-0.8-1.8-1.8-1.8h-3.9C9.8,4.3,9,5.1,9,6.1v1.6H4.7H4.3c-0.9,0-1.6,0.7-1.6,1.6v0.4
	v10v0.4c0,0.9,0.7,1.6,1.6,1.6h0.4h16.7h0.4c0.9,0,1.6-0.7,1.6-1.6v-0.4v-10V9.3C23.3,8.4,22.6,7.7,21.7,7.7z M11,6.5
	C11,6.2,11.2,6,11.5,6h2.6c0.3,0,0.5,0.2,0.5,0.5v1.2H11V6.5z M21.3,19.1c0,0.3-0.3,0.6-0.6,0.6H5.3c-0.3,0-0.6-0.3-0.6-0.6v-4.9
	c0-0.2,0.2-0.4,0.4-0.4H21c0.2,0,0.4,0.2,0.4,0.4V19.1z M21.3,11.5c0,0.2-0.2,0.4-0.4,0.4H5c-0.2,0-0.4-0.2-0.4-0.4v-1.2
	c0-0.3,0.3-0.6,0.6-0.6h15.5c0.3,0,0.6,0.3,0.6,0.6V11.5z"/>
</svg>
