<?xml version="1.0" encoding="utf-8"?>
<!-- Generator: Adobe Illustrator 25.2.3, SVG Export Plug-In . SVG Version: 6.00 Build 0)  -->
<svg version="1.1" id="Layer_1" xmlns="http://www.w3.org/2000/svg" xmlns:xlink="http://www.w3.org/1999/xlink" x="0px" y="0px"
	 viewBox="0 0 26 26" style="enable-background:new 0 0 26 26;" xml:space="preserve">
<style type="text/css">
	.st0{fill:#AAAAAA;}
</style>
<g>
	<g>
		<path class="st0" d="M19.2,20.2H6.8c-0.5,0-0.8-0.4-0.8-0.8V6.7c0-0.5,0.4-0.8,0.8-0.8h12.3c0.5,0,0.8,0.4,0.8,0.8v0.8
			c0,0.5,0.4,0.8,0.8,0.8h0c0.5,0,0.8-0.4,0.8-0.8V5c0-0.5-0.4-0.8-0.8-0.8H5.2C4.7,4.2,4.3,4.5,4.3,5v16c0,0.5,0.4,0.8,0.8,0.8
			h15.7c0.5,0,0.8-0.4,0.8-0.8v-9.5c0-0.5-0.4-0.8-0.8-0.8h0c-0.5,0-0.8,0.4-0.8,0.8v7.8C20,19.8,19.6,20.2,19.2,20.2z"/>
	</g>
	<g>
		<path class="st0" d="M18.3,18.8H8c-0.5,0-0.8-0.4-0.8-0.8v-7.2C7.2,10.4,7.5,10,8,10h10.3c0.5,0,0.8,0.4,0.8,0.8V18
			C19.2,18.5,18.8,18.8,18.3,18.8z M9.7,17.2h7c0.5,0,0.8-0.4,0.8-0.8v-3.8c0-0.5-0.4-0.8-0.8-0.8h-7c-0.5,0-0.8,0.4-0.8,0.8v3.8
			C8.8,16.8,9.2,17.2,9.7,17.2z"/>
	</g>
	<path class="st0" d="M13.3,8.7H8c-0.5,0-0.8-0.4-0.8-0.8v0C7.2,7.4,7.5,7,8,7h5.3c0.5,0,0.8,0.4,0.8,0.8v0
		C14.2,8.3,13.8,8.7,13.3,8.7z"/>
</g>
</svg>
