<svg width="72" height="72" viewBox="0 0 72 72" fill="none" xmlns="http://www.w3.org/2000/svg">
<path d="M35.9987 36.4888C39.5113 36.4888 42.8801 35.0934 45.3639 32.6096C47.8477 30.1258 49.2431 26.757 49.2431 23.2444C49.2431 19.7317 47.8477 16.363 45.3639 13.8792C42.8801 11.3954 39.5113 10 35.9987 10C32.4861 10 29.1173 11.3954 26.6335 13.8792C24.1497 16.363 22.7543 19.7317 22.7543 23.2444C22.7543 26.757 24.1497 30.1258 26.6335 32.6096C29.1173 35.0934 32.4861 36.4888 35.9987 36.4888ZM10.3364 56.4242C11.1841 53.0919 12.6674 50.0139 14.6435 47.3121C11.7693 46.7624 8.79407 47.1801 6.18234 48.4998C3.57062 49.8196 1.4695 51.9671 0.207118 54.6071C-0.513377 56.1275 0.747488 57.6798 2.42158 57.6798H10.098C10.151 57.2718 10.2305 56.8533 10.3364 56.4242ZM61.6769 56.4242C61.7829 56.848 61.8676 57.2718 61.9206 57.6798H69.5812C71.2552 57.6798 72.5161 56.1275 71.7903 54.6124C70.5295 51.9745 68.4313 49.828 65.8228 48.5074C63.2143 47.1869 60.2422 46.7666 57.3699 47.3121C59.3512 50.0139 60.8293 53.0866 61.6769 56.4242ZM67.7852 33.8399C67.7852 34.8834 67.5797 35.9168 67.1803 36.8809C66.781 37.845 66.1956 38.7211 65.4577 39.459C64.7198 40.1969 63.8438 40.7822 62.8796 41.1816C61.9155 41.581 60.8822 41.7865 59.8386 41.7865C58.795 41.7865 57.7617 41.581 56.7976 41.1816C55.8334 40.7822 54.9574 40.1969 54.2195 39.459C53.4816 38.7211 52.8962 37.845 52.4969 36.8809C52.0975 35.9168 51.892 34.8834 51.892 33.8399C51.892 31.7323 52.7292 29.711 54.2195 28.2208C55.7098 26.7305 57.731 25.8933 59.8386 25.8933C61.9462 25.8933 63.9674 26.7305 65.4577 28.2208C66.948 29.711 67.7852 31.7323 67.7852 33.8399ZM12.1588 41.7865C14.2664 41.7865 16.2877 40.9493 17.778 39.459C19.2682 37.9687 20.1055 35.9475 20.1055 33.8399C20.1055 31.7323 19.2682 29.711 17.778 28.2208C16.2877 26.7305 14.2664 25.8933 12.1588 25.8933C10.0513 25.8933 8.03001 26.7305 6.53973 28.2208C5.04945 29.711 4.21222 31.7323 4.21222 33.8399C4.21222 35.9475 5.04945 37.9687 6.53973 39.459C8.03001 40.9493 10.0513 41.7865 12.1588 41.7865ZM20.1055 62.9775C17.1811 62.9775 14.7388 60.567 15.4646 57.7327C16.6339 53.1743 19.2866 49.1344 23.0048 46.2496C26.723 43.3648 31.2953 41.799 36.0014 41.799C40.7074 41.799 45.2797 43.3648 48.9979 46.2496C52.7161 49.1344 55.3688 53.1743 56.5381 57.7327C57.2586 60.567 54.8216 62.9775 51.892 62.9775H20.1055Z" fill="#333333"/>
</svg>
