<?xml version="1.0" encoding="utf-8"?>
<!-- Generator: Adobe Illustrator 25.2.3, SVG Export Plug-In . SVG Version: 6.00 Build 0)  -->
<svg version="1.1" id="Layer_1" xmlns="http://www.w3.org/2000/svg" xmlns:xlink="http://www.w3.org/1999/xlink" x="0px" y="0px"
	 viewBox="0 0 26 26" style="enable-background:new 0 0 26 26;" xml:space="preserve">
<style type="text/css">
	.st0{fill:#333333;}
</style>
<g>
	<g>
		<path class="st0" d="M18.7,23.3h-2c-0.4,0-0.7-0.2-0.7-0.6L13,5.9c0,0-0.1,0-0.1,0L10,22.7C10,23,9.7,23.3,9.3,23.3h-2
			c-0.3,0-0.6-0.2-0.7-0.5L1.7,3.8c-0.1-0.5,0.2-1,0.7-1.1l0,0c0.5-0.1,1,0.2,1.1,0.7l4.7,18.1h0.1l3.2-18.2
			c0.1-0.3,0.4-0.6,0.8-0.6h1.4c0.4,0,0.7,0.3,0.8,0.6l3.2,18.2h0.1l4.7-18.1c0.1-0.5,0.6-0.8,1.1-0.7l0,0c0.5,0.1,0.8,0.6,0.7,1.1
			l-4.9,18.9C19.3,23.1,19,23.3,18.7,23.3z"/>
	</g>
	<path class="st0" d="M24,8H2C1.4,8,1,8.5,1,9v0c0,0.6,0.4,1,1,1h22c0.6,0,1-0.4,1-1v0C25,8.5,24.6,8,24,8z"/>
	<path class="st0" d="M24,14.4H2c-0.6,0-1-0.4-1-1v0c0-0.6,0.4-1,1-1h22c0.6,0,1,0.4,1,1v0C25,13.9,24.6,14.4,24,14.4z"/>
</g>
</svg>
