<?xml version="1.0" encoding="utf-8"?>
<!-- Generator: Adobe Illustrator 25.2.3, SVG Export Plug-In . SVG Version: 6.00 Build 0)  -->
<svg version="1.1" id="Layer_1" xmlns="http://www.w3.org/2000/svg" xmlns:xlink="http://www.w3.org/1999/xlink" x="0px" y="0px"
	 viewBox="0 0 26 26" style="enable-background:new 0 0 26 26;" xml:space="preserve">
<style type="text/css">
	.st0{fill:#333333;}
</style>
<g>
	<path class="st0" d="M24,6H2C1.4,6,1,5.6,1,5v0c0-0.6,0.4-1,1-1h22c0.6,0,1,0.4,1,1v0C25,5.6,24.6,6,24,6z"/>
	<path class="st0" d="M24,14H2c-0.6,0-1-0.4-1-1v0c0-0.6,0.4-1,1-1h22c0.6,0,1,0.4,1,1v0C25,13.6,24.6,14,24,14z"/>
	<path class="st0" d="M24,22H2c-0.6,0-1-0.4-1-1v0c0-0.6,0.4-1,1-1h22c0.6,0,1,0.4,1,1v0C25,21.6,24.6,22,24,22z"/>
</g>
</svg>
