<?xml version="1.0" encoding="utf-8"?>
<!-- Generator: Adobe Illustrator 25.2.3, SVG Export Plug-In . SVG Version: 6.00 Build 0)  -->
<svg version="1.1" id="Layer_1" xmlns="http://www.w3.org/2000/svg" xmlns:xlink="http://www.w3.org/1999/xlink" x="0px" y="0px"
	 viewBox="0 0 26 26" style="enable-background:new 0 0 26 26;" xml:space="preserve">
<style type="text/css">
	.st0{fill:#666666;}
</style>
<g>
	<path class="st0" d="M24,5.3h-3c-0.2,0-0.3-0.1-0.3-0.3V2c0-0.6-0.4-1-1-1h0c-0.6,0-1,0.4-1,1v3c0,0.2-0.1,0.3-0.3,0.3h-3
		c-0.6,0-1,0.4-1,1v0c0,0.6,0.4,1,1,1h3c0.2,0,0.3,0.1,0.3,0.3v3c0,0.6,0.4,1,1,1h0c0.6,0,1-0.4,1-1v-3c0-0.2,0.1-0.3,0.3-0.3h3
		c0.6,0,1-0.4,1-1v0C25,5.8,24.6,5.3,24,5.3z"/>
	<path class="st0" d="M10.1,15l-2.8-2.8c-0.2-0.2-0.4-0.2-0.6,0L3,15V7.8c0-0.2,0.2-0.4,0.4-0.4h7.9c0.6,0,1-0.4,1-1v0
		c0-0.6-0.4-1-1-1H2c-0.6,0-1,0.4-1,1v0v1V23v1v0.6C1,24.8,1.2,25,1.4,25h17.2h1h0.6c0.2,0,0.4-0.2,0.4-0.4v-6.6l-6.3-5.6
		c-0.2-0.1-0.4-0.1-0.6,0L10.1,15z M3,17.5l3.6-2.6c0.2-0.1,0.4-0.1,0.6,0l7.7,7.7c0.1,0.1,0,0.4-0.2,0.4H3V17.5z M18.7,23h-0.6
		l-6.2-6.2c-0.2-0.2-0.1-0.4,0-0.6l1.8-1.4c0.2-0.1,0.4-0.1,0.6,0l4.4,4V23z"/>
</g>
</svg>
