<svg width="72" height="72" viewBox="0 0 72 72" fill="none" xmlns="http://www.w3.org/2000/svg">
<path d="M12.285 60.165L21.798 56.9925L23.463 57.825C27.288 59.733 31.5405 60.75 36 60.75C50.895 60.75 63 49.023 63 36C63 22.977 50.895 11.25 36 11.25C21.105 11.25 9 22.977 9 36C9 40.86 10.755 45.792 13.9815 50.0085L15.534 52.0335L12.2805 60.1605L12.285 60.165ZM9.1035 65.97C8.69628 66.1064 8.25852 66.1235 7.84192 66.0191C7.42533 65.9147 7.04731 65.6933 6.75251 65.381C6.45771 65.0687 6.25845 64.6786 6.17826 64.2566C6.09808 63.8347 6.14032 63.3987 6.3 63L10.404 52.74C6.66 47.835 4.5 41.967 4.5 36C4.5 21.087 18 6.75 36 6.75C54 6.75 67.5 21.087 67.5 36C67.5 50.913 54 65.25 36 65.25C30.9518 65.2642 25.97 64.0993 21.4515 61.848L9.1035 65.9655V65.97Z" fill="#333333"/>
<path d="M36 39.6C35.5272 39.6 35.0591 39.5069 34.6223 39.326C34.1856 39.1451 33.7887 38.8799 33.4544 38.5456C33.1201 38.2113 32.855 37.8145 32.674 37.3777C32.4931 36.9409 32.4 36.4728 32.4 36C32.4 35.5273 32.4931 35.0591 32.674 34.6224C32.855 34.1856 33.1201 33.7887 33.4544 33.4544C33.7887 33.1202 34.1856 32.855 34.6223 32.6741C35.0591 32.4931 35.5272 32.4 36 32.4C36.9548 32.4 37.8705 32.7793 38.5456 33.4544C39.2207 34.1296 39.6 35.0452 39.6 36C39.6 36.9548 39.2207 37.8705 38.5456 38.5456C37.8705 39.2207 36.9548 39.6 36 39.6ZM49.5 39.6C49.0272 39.6 48.5591 39.5069 48.1223 39.326C47.6856 39.1451 47.2887 38.8799 46.9544 38.5456C46.6201 38.2113 46.355 37.8145 46.174 37.3777C45.9931 36.9409 45.9 36.4728 45.9 36C45.9 35.5273 45.9931 35.0591 46.174 34.6224C46.355 34.1856 46.6201 33.7887 46.9544 33.4544C47.2887 33.1202 47.6856 32.855 48.1223 32.6741C48.5591 32.4931 49.0272 32.4 49.5 32.4C50.4548 32.4 51.3705 32.7793 52.0456 33.4544C52.7207 34.1296 53.1 35.0452 53.1 36C53.1 36.9548 52.7207 37.8705 52.0456 38.5456C51.3705 39.2207 50.4548 39.6 49.5 39.6ZM22.5 39.6C22.0272 39.6 21.5591 39.5069 21.1223 39.326C20.6856 39.1451 20.2887 38.8799 19.9544 38.5456C19.6201 38.2113 19.355 37.8145 19.174 37.3777C18.9931 36.9409 18.9 36.4728 18.9 36C18.9 35.5273 18.9931 35.0591 19.174 34.6224C19.355 34.1856 19.6201 33.7887 19.9544 33.4544C20.2887 33.1202 20.6856 32.855 21.1223 32.6741C21.5591 32.4931 22.0272 32.4 22.5 32.4C23.4548 32.4 24.3705 32.7793 25.0456 33.4544C25.7207 34.1296 26.1 35.0452 26.1 36C26.1 36.9548 25.7207 37.8705 25.0456 38.5456C24.3705 39.2207 23.4548 39.6 22.5 39.6Z" fill="#333333"/>
</svg>
