<?xml version="1.0" encoding="utf-8"?>
<!-- Generator: Adobe Illustrator 25.2.3, SVG Export Plug-In . SVG Version: 6.00 Build 0)  -->
<svg version="1.1" id="Layer_1" xmlns="http://www.w3.org/2000/svg" xmlns:xlink="http://www.w3.org/1999/xlink" x="0px" y="0px"
	 viewBox="0 0 26 26" style="enable-background:new 0 0 26 26;" xml:space="preserve">
<style type="text/css">
	.st0{fill:#333333;}
</style>
<g>
	<path class="st0" d="M23,15.8v6c0,0.6-0.4,1-1,1H4c-0.6,0-1-0.4-1-1v-6c0-0.6-0.4-1-1-1h0c-0.6,0-1,0.4-1,1v7v1c0,0.6,0.4,1,1,1h1
		h20h1c0.6,0,1-0.4,1-1v-1v-7c0-0.6-0.4-1-1-1h0C23.4,14.8,23,15.3,23,15.8z"/>
	<path class="st0" d="M18.3,8.2c0.4-0.4,0.4-1,0-1.4l-4.2-4.2l0,0l-1.3-1.3c-0.1-0.1-0.2-0.1-0.2,0l-1.3,1.3L7,6.8
		c-0.4,0.4-0.4,1,0,1.4l0,0c0.4,0.4,1,0.4,1.4,0l3-3c0.1-0.1,0.3,0,0.3,0.1v12.5c0,0.6,0.4,1,1,1h0c0.6,0,1-0.4,1-1V5.4
		c0-0.2,0.2-0.2,0.3-0.1l2.9,2.9C17.3,8.6,17.9,8.6,18.3,8.2L18.3,8.2z"/>
</g>
</svg>
