<?xml version="1.0" encoding="utf-8"?>
<!-- Generator: Adobe Illustrator 25.2.3, SVG Export Plug-In . SVG Version: 6.00 Build 0)  -->
<svg version="1.1" id="Layer_1" xmlns="http://www.w3.org/2000/svg" xmlns:xlink="http://www.w3.org/1999/xlink" x="0px" y="0px"
	 viewBox="0 0 26 26" style="enable-background:new 0 0 26 26;" xml:space="preserve">
<style type="text/css">
	.st0{fill:#333333;}
</style>
<path class="st0" d="M20.1,7.1c0-5.7-5.8-5.9-6.9-5.9c-0.1,0-0.2,0-0.2,0s-0.1,0-0.2,0c-1.1,0-6.9,0.3-6.9,5.9c0,5.6-1.4,9.3-4,11.6
	c-0.3,0.2-0.1,0.7,0.3,0.7h3.1c0.2,0,0.4,0.2,0.4,0.4c0.3,2.8,3.4,5,7.3,5s7.1-2.2,7.3-5c0-0.2,0.2-0.4,0.4-0.4h3.1
	c0.4,0,0.6-0.5,0.3-0.7C21.4,16.5,20.1,12.7,20.1,7.1z M13,22.8c-2.8,0-5.3-1.6-5.3-3.4H13h5.3C18.3,21.2,15.8,22.8,13,22.8z
	 M19.8,17.4h-2.6H13H8.8H6.2H5.6c1.6-2.6,2.3-6,2.3-10.3c0-1.6,0.6-2.6,1.9-3.3c1.2-0.6,2.7-0.6,3-0.6c0,0,0.1,0,0.1,0l0.1,0l0.1,0
	c0,0,0,0,0.1,0c0.3,0,1.7,0,3,0.6c1.3,0.6,1.9,1.7,1.9,3.3c0,4.3,0.8,7.7,2.3,10.3H19.8z"/>
</svg>
