<?xml version="1.0" encoding="utf-8"?>
<!-- Generator: Adobe Illustrator 25.2.3, SVG Export Plug-In . SVG Version: 6.00 Build 0)  -->
<svg version="1.1" id="Layer_1" xmlns="http://www.w3.org/2000/svg" xmlns:xlink="http://www.w3.org/1999/xlink" x="0px" y="0px"
	 viewBox="0 0 26 26" style="enable-background:new 0 0 26 26;" xml:space="preserve">
<style type="text/css">
	.st0{fill:#333333;}
</style>
<path class="st0" d="M14.4,13l8.5-8.5c0.4-0.4,0.4-1,0-1.4c-0.4-0.4-1-0.4-1.4,0L13,11.6L4.5,3.1c-0.4-0.4-1-0.4-1.4,0
	c-0.4,0.4-0.4,1,0,1.4l8.5,8.5l-8.5,8.5c-0.4,0.4-0.4,1,0,1.4s1,0.4,1.4,0l8.5-8.5l8.5,8.5c0.4,0.4,1,0.4,1.4,0c0.4-0.4,0.4-1,0-1.4
	L14.4,13z"/>
</svg>
