<?xml version="1.0" encoding="utf-8"?>
<!-- Generator: Adobe Illustrator 25.2.3, SVG Export Plug-In . SVG Version: 6.00 Build 0)  -->
<svg version="1.1" id="Layer_1" xmlns="http://www.w3.org/2000/svg" xmlns:xlink="http://www.w3.org/1999/xlink" x="0px" y="0px"
	 viewBox="0 0 36 36" style="enable-background:new 0 0 36 36;" xml:space="preserve">
<style type="text/css">
	.st0{fill:url(#SVGID_1_);}
	.st1{fill:#FFFFFF;}
</style>
<g>
	<linearGradient id="SVGID_1_" gradientUnits="userSpaceOnUse" x1="18" y1="3.522749e-06" x2="18" y2="36">
		<stop  offset="0" style="stop-color:#62EFCD"/>
		<stop  offset="1" style="stop-color:#0BD0AF"/>
	</linearGradient>
	<circle class="st0" cx="18" cy="18" r="18"/>
	<circle class="st1" cx="18" cy="28" r="2"/>
	<g>
		<g>
			<path class="st1" d="M16,19.4l-1.5-1.5c0,0-0.1,0-0.1,0c-0.1,0-0.1,0-0.2,0.1l-0.1,0.3L14,19l-0.3,1c0,0.1,0.1,0.2,0.2,0.2
				c0,0,0,0,0,0l1-0.3l0.7-0.2l0.3-0.1C16.1,19.7,16.1,19.5,16,19.4z"/>
			<path class="st1" d="M28.1,5.9c-0.3-0.3-0.6-0.4-0.9-0.4c-0.3,0-0.7,0.1-0.9,0.4L24,8l-8.8,8.8l-0.5,0.5l-0.1,0.1
				c-0.1,0.1-0.1,0.3,0,0.5l1.4,1.4c0.1,0.1,0.1,0.1,0.2,0.1c0.1,0,0.2,0,0.2-0.1l0.1-0.1l0.5-0.5L26,9.8l2.1-2.1
				C28.6,7.2,28.6,6.4,28.1,5.9z"/>
		</g>
		<path class="st1" d="M25.1,12.6l-7.6,7.6c-0.2,0.2-0.3,0.3-0.5,0.4c-0.2,0.2-0.4,0.4-0.7,0.4l-2,0.5c-0.1,0-0.3,0.1-0.4,0.1
			c-0.5,0-0.9-0.2-1.2-0.6c-0.3-0.4-0.4-0.8-0.3-1.3l0.5-2c0.1-0.3,0.2-0.5,0.4-0.7c0.1-0.2,0.2-0.4,0.4-0.5l1.2-1.2h-2
			c-0.4,0-0.8-0.4-0.8-0.8c0-0.4,0.4-0.8,0.8-0.8h3.6l1.3-1.3h-5c-0.4,0-0.8-0.4-0.8-0.8s0.4-0.8,0.8-0.8h6.6l1.8-1.8
			C21.6,8.6,21.4,8,20.9,8h-9.6C10.6,8,10,8.6,10,9.3v13.4c0,0.7,0.6,1.3,1.3,1.3h13.4c0.7,0,1.3-0.6,1.3-1.3V13
			C26,12.5,25.4,12.3,25.1,12.6z"/>
	</g>
</g>
</svg>
