<?xml version="1.0" encoding="utf-8"?>
<!-- Generator: Adobe Illustrator 25.2.3, SVG Export Plug-In . SVG Version: 6.00 Build 0)  -->
<svg version="1.1" id="Layer_1" xmlns="http://www.w3.org/2000/svg" xmlns:xlink="http://www.w3.org/1999/xlink" x="0px" y="0px"
	 viewBox="0 0 26 26" style="enable-background:new 0 0 26 26;" xml:space="preserve">
<style type="text/css">
	.st0{fill:none;}
	.st1{fill:#333333;}
</style>
<g>
	<g>
		<path class="st0" d="M15.1,14.1l2-3.2c0.5-0.8,0.7-1.7,0.7-2.6c0-1.3-0.5-2.6-1.5-3.5c-0.9-0.9-2.2-1.5-3.5-1.5
			c-1.3,0-2.6,0.5-3.5,1.5C8.3,5.7,7.8,7,7.8,8.3c0,0.9,0.2,1.8,0.7,2.6l2,3.2"/>
		<polyline class="st0" points="11.7,16.1 12.8,17.9 14,16.1 		"/>
		<path class="st0" d="M12.8,21.3c-0.2,0-0.3-0.1-0.4-0.2l-2.9-4.8C5.7,16.7,3,17.9,3,19.4c0,1.8,4.5,3.3,10,3.3
			c5.5,0,10-1.5,10-3.3c0-1.5-2.8-2.7-6.8-3.2l-2.9,4.8C13.2,21.2,13,21.3,12.8,21.3z"/>
		<path class="st1" d="M20.7,15.1c-1-0.3-2.1-0.6-3.4-0.8l1.5-2.4c0.7-1.1,1-2.4,1-3.6c0-1.9-0.7-3.6-2.1-4.9
			c-1.3-1.3-3.1-2.1-4.9-2.1C11,1.3,9.2,2,7.9,3.3C6.5,4.7,5.8,6.4,5.8,8.3c0,1.3,0.4,2.5,1,3.6l1.5,2.5c-1.1,0.2-2.1,0.4-3,0.7
			c-3.6,1.2-4.3,3-4.3,4.3c0,1.3,0.7,3.1,4.3,4.3c2.1,0.7,4.8,1.1,7.7,1.1c2.9,0,5.6-0.4,7.7-1.1c3.6-1.2,4.3-3,4.3-4.3
			C25,18.1,24.3,16.3,20.7,15.1z M7.8,8.3c0-1.3,0.5-2.6,1.5-3.5c0.9-0.9,2.2-1.5,3.5-1.5c1.3,0,2.6,0.5,3.5,1.5
			c0.9,0.9,1.5,2.2,1.5,3.5c0,0.9-0.2,1.8-0.7,2.6l-2,3.2L14,16.1l-1.1,1.9l-1.1-1.9l-1.2-1.9l-2-3.2C8.1,10.1,7.8,9.2,7.8,8.3z
			 M13,22.7c-5.5,0-10-1.5-10-3.3c0-1.4,2.7-2.6,6.5-3.1l2.9,4.8c0.1,0.1,0.3,0.2,0.4,0.2c0.2,0,0.3-0.1,0.4-0.2l2.9-4.8
			c4,0.4,6.8,1.7,6.8,3.2C23,21.2,18.5,22.7,13,22.7z"/>
	</g>
	<circle class="st1" cx="12.9" cy="8.7" r="1.7"/>
</g>
</svg>
