<?xml version="1.0" encoding="utf-8"?>
<!-- Generator: Adobe Illustrator 25.2.3, SVG Export Plug-In . SVG Version: 6.00 Build 0)  -->
<svg version="1.1" id="Layer_1" xmlns="http://www.w3.org/2000/svg" xmlns:xlink="http://www.w3.org/1999/xlink" x="0px" y="0px"
	 viewBox="0 0 26 26" style="enable-background:new 0 0 26 26;" xml:space="preserve">
<style type="text/css">
	.st0{fill:#AAAAAA;}
</style>
<g>
	<path class="st0" d="M12.3,3.3C12.5,3.1,12.7,3,13,3c0.3,0,0.5,0.1,0.7,0.3l9.5,8.4c0.2,0.2,0.3,0.4,0.3,0.7c0,0.3-0.1,0.5-0.3,0.7
		c-0.2,0.2-0.4,0.3-0.7,0.4c-0.3,0-0.5-0.1-0.8-0.2l-0.4-0.3v8c0,0.6-0.2,1.1-0.6,1.5c-0.4,0.4-0.9,0.6-1.5,0.6H6.7
		c-0.6,0-1.1-0.2-1.5-0.6c-0.4-0.4-0.6-0.9-0.6-1.5v-8l-0.4,0.3c-0.2,0.2-0.5,0.3-0.8,0.2c-0.3,0-0.5-0.1-0.7-0.4s-0.3-0.5-0.3-0.7
		c0-0.3,0.1-0.5,0.3-0.7L12.3,3.3z M6.7,11.1v9.8h3.2v-5.3c0-0.3,0.1-0.5,0.3-0.7s0.5-0.3,0.7-0.3h4.2c0.3,0,0.5,0.1,0.7,0.3
		s0.3,0.5,0.3,0.7v5.3h3.2v-9.8L13,5.5L6.7,11.1z M14.1,20.9v-4.2h-2.1v4.2H14.1z"/>
</g>
</svg>
