<?xml version="1.0" encoding="utf-8"?>
<!-- Generator: Adobe Illustrator 25.2.3, SVG Export Plug-In . SVG Version: 6.00 Build 0)  -->
<svg version="1.1" id="Layer_1" xmlns="http://www.w3.org/2000/svg" xmlns:xlink="http://www.w3.org/1999/xlink" x="0px" y="0px"
	 viewBox="0 0 36 36" style="enable-background:new 0 0 36 36;" xml:space="preserve">
<style type="text/css">
	.st0{fill:url(#SVGID_1_);}
	.st1{fill:#FFFFFF;}
</style>
<g>
	<g>
		<linearGradient id="SVGID_1_" gradientUnits="userSpaceOnUse" x1="18" y1="-1.998480e-06" x2="18" y2="36">
			<stop  offset="0" style="stop-color:#62EFCD"/>
			<stop  offset="1" style="stop-color:#0BD0AF"/>
		</linearGradient>
		<circle class="st0" cx="18" cy="18" r="18"/>
		<circle class="st1" cx="18" cy="28" r="2"/>
	</g>
	<path class="st1" d="M28.2,12.4l-9.5-8.4c-0.2-0.2-0.4-0.3-0.7-0.3c-0.3,0-0.5,0.1-0.7,0.3l-9.5,8.4c-0.2,0.2-0.3,0.4-0.3,0.7
		c0,0.3,0.1,0.5,0.3,0.7c0.2,0.2,0.4,0.3,0.7,0.4c0.3,0,0.5-0.1,0.8-0.2l0.4-0.3v8c0,0.6,0.2,1.1,0.6,1.5c0.4,0.4,0.9,0.6,1.5,0.6
		h12.6c0.6,0,1.1-0.2,1.5-0.6c0.4-0.4,0.6-0.9,0.6-1.5v-8l0.4,0.3c0.2,0.2,0.5,0.3,0.8,0.2c0.3,0,0.5-0.1,0.7-0.4s0.3-0.5,0.3-0.7
		C28.5,12.8,28.4,12.6,28.2,12.4z M20.2,21.6h-4.4V17c0-0.7,0.6-1.3,1.3-1.3h1.8c0.7,0,1.3,0.6,1.3,1.3V21.6z"/>
</g>
</svg>
