<?xml version="1.0" encoding="utf-8"?>
<!-- Generator: Adobe Illustrator 25.2.3, SVG Export Plug-In . SVG Version: 6.00 Build 0)  -->
<svg version="1.1" id="Layer_1" xmlns="http://www.w3.org/2000/svg" xmlns:xlink="http://www.w3.org/1999/xlink" x="0px" y="0px"
	 viewBox="0 0 26 26" style="enable-background:new 0 0 26 26;" xml:space="preserve">
<style type="text/css">
	.st0{fill:#333333;}
</style>
<g>
	<g>
		<path class="st0" d="M19,4.3L18.3,2c-0.2-0.6-0.8-1-1.4-1H9.1C8.4,1,7.9,1.4,7.7,2L7,4.3H3.4c-0.6,0-1,0.4-1,1v0c0,0.6,0.4,1,1,1
			h3h13.3h3c0.6,0,1-0.4,1-1v0c0-0.6-0.4-1-1-1H19z M9.2,4l0.2-0.8C9.4,3.1,9.5,3,9.7,3h6.7c0.1,0,0.2,0.1,0.2,0.2L16.8,4
			c0.1,0.2-0.1,0.3-0.2,0.3H9.4C9.2,4.3,9.1,4.2,9.2,4z"/>
		<g>
			<path class="st0" d="M19.7,25H6.3c-0.8,0-1.4-0.6-1.5-1.4L3.2,8.7C3.1,7.8,3.8,7,4.8,7h16.5c0.9,0,1.6,0.8,1.5,1.7l-1.6,14.9
				C21.1,24.4,20.5,25,19.7,25z M7.3,23h11.3c0.3,0,0.6-0.3,0.7-0.6l1.3-12.7C20.7,9.3,20.4,9,20,9H6C5.6,9,5.3,9.3,5.4,9.7
				l1.3,12.7C6.7,22.7,7,23,7.3,23z"/>
		</g>
	</g>
	<g>
		<g>
			<path class="st0" d="M16,20L16,20c-0.6,0-1-0.4-1-1v-6.7c0-0.6,0.4-1,1-1h0c0.6,0,1,0.4,1,1V19C17,19.6,16.6,20,16,20z"/>
		</g>
		<g>
			<path class="st0" d="M10,20L10,20c-0.6,0-1-0.4-1-1v-6.7c0-0.6,0.4-1,1-1h0c0.6,0,1,0.4,1,1V19C11,19.6,10.6,20,10,20z"/>
		</g>
	</g>
</g>
</svg>
