<?xml version="1.0" encoding="utf-8"?>
<!-- Generator: Adobe Illustrator 25.2.3, SVG Export Plug-In . SVG Version: 6.00 Build 0)  -->
<svg version="1.1" id="Layer_1" xmlns="http://www.w3.org/2000/svg" xmlns:xlink="http://www.w3.org/1999/xlink" x="0px" y="0px"
	 viewBox="0 0 26 26" style="enable-background:new 0 0 26 26;" xml:space="preserve">
<style type="text/css">
	.st0{fill:#333333;}
</style>
<g>
	<path class="st0" d="M13,3c5.5,0,10,4.5,10,10s-4.5,10-10,10S3,18.5,3,13S7.5,3,13,3 M13,1C6.4,1,1,6.4,1,13s5.4,12,12,12
		s12-5.4,12-12S19.6,1,13,1L13,1z"/>
	<g>
		<path class="st0" d="M16.4,17.8l-4.1-4.1C12.1,13.5,12,13.3,12,13V6.6c0-0.6,0.4-1,1-1h0c0.6,0,1,0.4,1,1v5.6
			c0,0.3,0.1,0.5,0.3,0.7l3.5,3.5c0.4,0.4,0.4,1,0,1.4v0C17.4,18.2,16.8,18.2,16.4,17.8z"/>
	</g>
</g>
</svg>
