<?xml version="1.0" encoding="utf-8"?>
<!-- Generator: Adobe Illustrator 25.2.3, SVG Export Plug-In . SVG Version: 6.00 Build 0)  -->
<svg version="1.1" id="Layer_1" xmlns="http://www.w3.org/2000/svg" xmlns:xlink="http://www.w3.org/1999/xlink" x="0px" y="0px"
	 viewBox="0 0 26 26" style="enable-background:new 0 0 26 26;" xml:space="preserve">
<style type="text/css">
	.st0{fill:#AAAAAA;}
</style>
<g>
	<path class="st0" d="M18.2,13.9v6.7c0,0.3-0.2,0.5-0.5,0.5H5.4c-0.3,0-0.5-0.2-0.5-0.5V8.2c0-0.3,0.2-0.5,0.5-0.5h6.8
		c0.5,0,0.8-0.4,0.8-0.8v0c0-0.5-0.4-0.8-0.8-0.8H4.1c-0.5,0-0.8,0.4-0.8,0.8v15c0,0.5,0.4,0.8,0.8,0.8h15c0.5,0,0.8-0.4,0.8-0.8v-8
		c0-0.5-0.4-0.8-0.8-0.8h0C18.6,13.1,18.2,13.5,18.2,13.9z"/>
	<path class="st0" d="M22.2,4.8l-1.1-1.1l0,0c-0.7-0.7-1.7-0.7-2.4,0l0,0l-10,10l-0.6,0.6c-0.3,0.3-0.3,0.9,0,1.2l0.6,0.6l1.1,1.1
		l0.6,0.6c0.3,0.3,0.9,0.3,1.2,0l0.6-0.6l10-10v0C22.8,6.6,22.8,5.5,22.2,4.8L22.2,4.8z M10.7,15.7l-0.4-0.4c-0.2-0.2-0.2-0.5,0-0.7
		l9.3-9.3c0.2-0.2,0.5-0.2,0.7,0l0.4,0.4c0.2,0.2,0.2,0.5,0,0.7l-9.3,9.3C11.2,15.8,10.9,15.8,10.7,15.7z"/>
	<path class="st0" d="M8.3,19l0.4-0.1c0.9-0.2,1.2-1.3,0.6-1.9L9,16.6C8.3,16,7.2,16.3,7,17.2L7,17.6C6.8,18.4,7.5,19.1,8.3,19z"/>
	<path class="st0" d="M12.7,11.4H7.1c-0.5,0-0.8-0.4-0.8-0.8v0c0-0.5,0.4-0.8,0.8-0.8h5.6c0.5,0,0.8,0.4,0.8,0.8v0
		C13.6,11,13.2,11.4,12.7,11.4z"/>
	<path class="st0" d="M9.4,14.5H7.1c-0.5,0-0.8-0.4-0.8-0.8v0c0-0.5,0.4-0.8,0.8-0.8h2.2c0.5,0,0.8,0.4,0.8,0.8v0
		C10.2,14.1,9.8,14.5,9.4,14.5z"/>
</g>
</svg>
