<?xml version="1.0" encoding="utf-8"?>
<!-- Generator: Adobe Illustrator 25.2.3, SVG Export Plug-In . SVG Version: 6.00 Build 0)  -->
<svg version="1.1" id="Layer_1" xmlns="http://www.w3.org/2000/svg" xmlns:xlink="http://www.w3.org/1999/xlink" x="0px" y="0px"
	 viewBox="0 0 26 26" style="enable-background:new 0 0 26 26;" xml:space="preserve">
<style type="text/css">
	.st0{fill:#333333;}
</style>
<path class="st0" d="M19,1c-0.6,0-1,0.4-1,1v2.3H8V2c0-0.6-0.4-1-1-1S6,1.4,6,2v2.3H4c-1.7,0-3,1.3-3,3V22c0,1.7,1.3,3,3,3h18
	c1.7,0,3-1.3,3-3V7.3c0-1.7-1.3-3-3-3h-2V2C20,1.4,19.6,1,19,1L19,1z M3,11V7.3c0-0.6,0.4-1,1-1h18c0.6,0,1,0.4,1,1V11H3L3,11z
	 M4,23c-0.6,0-1-0.4-1-1v-9h20v9c0,0.6-0.4,1-1,1H4L4,23z"/>
</svg>
