<?xml version="1.0" encoding="utf-8"?>
<!-- Generator: Adobe Illustrator 25.2.3, SVG Export Plug-In . SVG Version: 6.00 Build 0)  -->
<svg version="1.1" id="Layer_1" xmlns="http://www.w3.org/2000/svg" xmlns:xlink="http://www.w3.org/1999/xlink" x="0px" y="0px"
	 viewBox="0 0 26 26" style="enable-background:new 0 0 26 26;" xml:space="preserve">
<style type="text/css">
	.st0{fill:#333333;}
</style>
<path class="st0" d="M24.2,5.3c-1-2.1-4-3.8-7.4-2.8C15.3,2.9,14,3.8,13,5.1c-1-1.2-2.3-2.1-3.8-2.6c-3.4-1-6.3,0.7-7.4,2.8
	C0.4,8.2,1,11.5,3.5,15c2,2.7,4.8,5.4,8.9,8.6c0.2,0.1,0.4,0.2,0.6,0.2h0h0c0.2,0,0.4-0.1,0.6-0.2c4.1-3.2,6.9-5.9,8.9-8.6
	C25,11.5,25.6,8.2,24.2,5.3z"/>
</svg>
