<?xml version="1.0" encoding="utf-8"?>
<!-- Generator: Adobe Illustrator 25.2.3, SVG Export Plug-In . SVG Version: 6.00 Build 0)  -->
<svg version="1.1" id="Layer_1" xmlns="http://www.w3.org/2000/svg" xmlns:xlink="http://www.w3.org/1999/xlink" x="0px" y="0px"
	 viewBox="0 0 26 26" style="enable-background:new 0 0 26 26;" xml:space="preserve">
<style type="text/css">
	.st0{fill:#333333;}
</style>
<g>
	<path class="st0" d="M3.2,2.4v21.2c0,0.8,0.6,1.4,1.4,1.4h10.6h2.3c0.3,0,0.6-0.1,0.8-0.3l1.7-1.7l0.9-0.9l1.7-1.7
		c0.2-0.2,0.3-0.5,0.3-0.8v-2.3V2.4c0-0.8-0.6-1.4-1.4-1.4H4.6C3.8,1,3.2,1.6,3.2,2.4z M17.2,22.1v-2.5c0-0.2,0.1-0.3,0.3-0.3H20
		c0.3,0,0.4,0.3,0.2,0.6l-2.5,2.5C17.5,22.6,17.2,22.4,17.2,22.1z M15.2,18.7v3.5c0,0.4-0.4,0.8-0.8,0.8H6c-0.4,0-0.8-0.4-0.8-0.8
		V3.8C5.2,3.4,5.5,3,6,3H20c0.4,0,0.8,0.4,0.8,0.8v12.7c0,0.4-0.4,0.8-0.8,0.8h-3.5C15.8,17.3,15.2,18,15.2,18.7z"/>
	<path class="st0" d="M17.8,8.3H8.2c-0.6,0-1-0.4-1-1v0c0-0.6,0.4-1,1-1h9.7c0.6,0,1,0.4,1,1v0C18.8,7.9,18.4,8.3,17.8,8.3z"/>
	<path class="st0" d="M17.8,13H8.2c-0.6,0-1-0.4-1-1v0c0-0.6,0.4-1,1-1h9.7c0.6,0,1,0.4,1,1v0C18.8,12.6,18.4,13,17.8,13z"/>
</g>
</svg>
