<?xml version="1.0" encoding="utf-8"?>
<!-- Generator: Adobe Illustrator 25.2.3, SVG Export Plug-In . SVG Version: 6.00 Build 0)  -->
<svg version="1.1" id="Layer_1" xmlns="http://www.w3.org/2000/svg" xmlns:xlink="http://www.w3.org/1999/xlink" x="0px" y="0px"
	 viewBox="0 0 175.6 143.6" style="enable-background:new 0 0 175.6 143.6;" xml:space="preserve">
<style type="text/css">
	.st0{fill:#FFFFFF;}
</style>
<g>
	<path class="st0" d="M138.9,66.2h-6.1v12.4h6.1c2.3,0,4-0.6,4.9-1.9c0.9-1.3,1.4-2.7,1.4-4.3c0-1.9-0.5-3.4-1.6-4.5
		C142.6,66.8,141,66.2,138.9,66.2z"/>
	<path class="st0" d="M80.9,66.4c-0.8-0.2-2.2-0.4-4.4-0.4H72v11.9h4.7c1.9,0,3.2-0.2,4.1-0.5s1.6-1,2.3-2.1s1-2.3,1-3.6
		c0-1.3-0.3-2.5-1-3.5S81.6,66.7,80.9,66.4z"/>
	<path class="st0" d="M159.6,18.8h-44.1c-5.5-9.6-15.9-16-27.7-16s-22.2,6.4-27.7,16H16C8.7,18.8,2.8,24.7,2.8,32v95.6
		c0,7.3,5.9,13.2,13.2,13.2h143.6c7.3,0,13.2-5.9,13.2-13.2V32C172.8,24.7,166.9,18.8,159.6,18.8z M55.9,67H44.3v37.4H33.3V67H21.6
		v-9.2h34.2V67z M87.8,12.8c5.8,0,11.1,2.3,15.1,6H72.7C76.7,15.1,82,12.8,87.8,12.8z M85.8,104.8l-8.2-18H72v17.6H61.8V57.7h17.3
		c3.2,0,5.8,0.4,7.8,1.3c2,0.9,3.6,2.5,4.8,4.8s1.9,5,1.9,7.8c0,5.6-2.3,9.6-6.9,12.1l10.3,21H85.8z M112.8,104.4h-10.1V57.7h10.1
		V104.4z M153.5,78.8c-0.8,2.2-1.9,3.9-3.3,5.2c-1.4,1.3-2.8,2.1-4.1,2.5c-1.3,0.4-3.4,0.6-6.3,0.6h-6.6v17.3h-10.5V57.7h16.7
		c3.5,0,6.2,0.4,8.1,1.3c1.9,0.9,3.5,2.4,5,4.7c1.5,2.3,2.2,5,2.2,8.3C154.6,74.4,154.3,76.6,153.5,78.8z"/>
</g>
</svg>
