<?xml version="1.0" encoding="utf-8"?>
<!-- Generator: Adobe Illustrator 25.2.3, SVG Export Plug-In . SVG Version: 6.00 Build 0)  -->
<svg version="1.1" id="Layer_1" xmlns="http://www.w3.org/2000/svg" xmlns:xlink="http://www.w3.org/1999/xlink" x="0px" y="0px"
	 viewBox="0 0 175.6 143.6" style="enable-background:new 0 0 175.6 143.6;" xml:space="preserve">
<style type="text/css">
	.st0{fill:#0BD0AF;}
	.st1{fill:#FFFFFF;}
</style>
<g>
	<path class="st0" d="M159.6,18.8h-44.1c-5.5-9.6-15.9-16-27.7-16s-22.2,6.4-27.7,16H16C8.7,18.8,2.8,24.7,2.8,32v95.6
		c0,7.3,5.9,13.2,13.2,13.2h143.6c7.3,0,13.2-5.9,13.2-13.2V32C172.8,24.7,166.9,18.8,159.6,18.8z M87.8,12.8c5.8,0,11.1,2.3,15.1,6
		H72.7C76.7,15.1,82,12.8,87.8,12.8z"/>
	<g>
		<g>
			<path class="st1" d="M55.9,57.7V67H44.3v37.4H33.3V67H21.6v-9.2H55.9z"/>
		</g>
		<g>
			<path class="st1" d="M72,86.8v17.6H61.8V57.7h17.3c3.2,0,5.8,0.4,7.8,1.3c2,0.9,3.6,2.5,4.8,4.8s1.9,5,1.9,7.8
				c0,5.6-2.3,9.6-6.9,12.1l10.3,21H85.8l-8.2-18H72z M72,66.1v11.9h4.7c1.9,0,3.2-0.2,4.1-0.5s1.6-1,2.3-2.1s1-2.3,1-3.6
				c0-1.3-0.3-2.5-1-3.5s-1.4-1.7-2.2-1.9c-0.8-0.2-2.2-0.4-4.4-0.4H72z"/>
		</g>
		<g>
			<path class="st1" d="M112.8,57.7v46.7h-10.1V57.7H112.8z"/>
		</g>
		<g>
			<path class="st1" d="M133.2,87.1v17.3h-10.5V57.7h16.7c3.5,0,6.2,0.4,8.1,1.3c1.9,0.9,3.5,2.4,5,4.7c1.5,2.3,2.2,5,2.2,8.3
				c0,2.3-0.4,4.5-1.2,6.7c-0.8,2.2-1.9,3.9-3.3,5.2c-1.4,1.3-2.8,2.1-4.1,2.5c-1.3,0.4-3.4,0.6-6.3,0.6H133.2z M132.8,78.6h6.1
				c2.3,0,4-0.6,4.9-1.9c0.9-1.3,1.4-2.7,1.4-4.3c0-1.9-0.5-3.4-1.6-4.5c-1-1.1-2.6-1.7-4.8-1.7h-6.1V78.6z"/>
		</g>
	</g>
</g>
</svg>
